<svg viewBox="0 0 319.305 74.4499" xmlns="http://www.w3.org/2000/svg" xmlns:xlink="http://www.w3.org/1999/xlink" width="319.305298" height="74.449890" fill="none" customFrame="#000000">
	<rect id="logo" width="319.305298" height="74.449898" x="0.000000" y="0.000000" />
	<g id="spectrum ai">
		<path id="Vector" d="M313.467 47.0004L313.467 24.8664L318.633 24.8664L318.633 47.0004L313.467 47.0004ZM315.987 20.1624C314.951 20.1624 314.139 19.9104 313.551 19.4064C312.991 18.8744 312.711 18.1324 312.711 17.1804C312.711 16.2844 313.005 15.5564 313.593 14.9964C314.181 14.4364 314.979 14.1564 315.987 14.1564C317.051 14.1564 317.863 14.4224 318.423 14.9544C319.011 15.4584 319.305 16.2004 319.305 17.1804C319.305 18.0484 319.011 18.7624 318.423 19.3224C317.835 19.8824 317.023 20.1624 315.987 20.1624Z" fill="rgb(66.3746,100.956,255)" fill-rule="nonzero" />
		<path id="Vector" d="M293.87 47.4204C292.05 47.4204 290.398 46.9164 288.914 45.9084C287.43 44.9004 286.24 43.5284 285.344 41.7924C284.448 40.0564 284 38.0824 284 35.8704C284 33.6584 284.448 31.6844 285.344 29.9484C286.24 28.2124 287.458 26.8544 288.998 25.8744C290.538 24.8944 292.274 24.4044 294.206 24.4044C295.326 24.4044 296.348 24.5724 297.272 24.9084C298.196 25.2164 299.008 25.6644 299.708 26.2524C300.408 26.8404 300.982 27.5124 301.43 28.2684C301.906 29.0244 302.228 29.8364 302.396 30.7044L301.262 30.4104L301.262 24.8664L306.47 24.8664L306.47 47.0004L301.22 47.0004L301.22 41.7084L302.438 41.4984C302.242 42.2544 301.878 42.9964 301.346 43.7244C300.842 44.4244 300.198 45.0544 299.414 45.6144C298.658 46.1464 297.804 46.5804 296.852 46.9164C295.928 47.2524 294.934 47.4204 293.87 47.4204ZM295.298 42.8424C296.502 42.8424 297.566 42.5484 298.49 41.9604C299.414 41.3724 300.128 40.5604 300.632 39.5244C301.164 38.4604 301.43 37.2424 301.43 35.8704C301.43 34.5264 301.164 33.3364 300.632 32.3004C300.128 31.2644 299.414 30.4524 298.49 29.8644C297.566 29.2764 296.502 28.9824 295.298 28.9824C294.094 28.9824 293.03 29.2764 292.106 29.8644C291.21 30.4524 290.51 31.2644 290.006 32.3004C289.502 33.3364 289.25 34.5264 289.25 35.8704C289.25 37.2424 289.502 38.4604 290.006 39.5244C290.51 40.5604 291.21 41.3724 292.106 41.9604C293.03 42.5484 294.094 42.8424 295.298 42.8424Z" fill="rgb(66.3746,100.956,255)" fill-rule="nonzero" />
		<path id="Vector" d="M245.386 47.0004L245.386 24.8664L250.468 24.8664L250.552 29.3184L249.712 29.6544C249.964 28.9264 250.342 28.2544 250.846 27.6384C251.35 26.9944 251.952 26.4484 252.652 26.0004C253.352 25.5244 254.094 25.1604 254.878 24.9084C255.662 24.6284 256.46 24.4884 257.272 24.4884C258.476 24.4884 259.54 24.6844 260.464 25.0764C261.416 25.4404 262.2 26.0284 262.816 26.8404C263.46 27.6524 263.936 28.6884 264.244 29.9484L263.446 29.7804L263.782 29.1084C264.09 28.4364 264.524 27.8344 265.084 27.3024C265.644 26.7424 266.274 26.2524 266.974 25.8324C267.674 25.3844 268.402 25.0484 269.158 24.8244C269.942 24.6004 270.712 24.4884 271.468 24.4884C273.148 24.4884 274.548 24.8244 275.668 25.4964C276.788 26.1684 277.628 27.1904 278.188 28.5624C278.748 29.9344 279.028 31.6284 279.028 33.6444L279.028 47.0004L273.82 47.0004L273.82 33.9804C273.82 32.8604 273.666 31.9364 273.358 31.2084C273.078 30.4804 272.63 29.9484 272.014 29.6124C271.426 29.2484 270.684 29.0664 269.788 29.0664C269.088 29.0664 268.416 29.1924 267.772 29.4444C267.156 29.6684 266.624 30.0044 266.176 30.4524C265.728 30.8724 265.378 31.3624 265.126 31.9224C264.874 32.4824 264.748 33.0984 264.748 33.7704L264.748 47.0004L259.54 47.0004L259.54 33.9384C259.54 32.8744 259.386 31.9924 259.078 31.2924C258.77 30.5644 258.322 30.0184 257.734 29.6544C257.146 29.2624 256.432 29.0664 255.592 29.0664C254.892 29.0664 254.234 29.1924 253.618 29.4444C253.002 29.6684 252.47 29.9904 252.022 30.4104C251.574 30.8304 251.224 31.3204 250.972 31.8804C250.72 32.4404 250.594 33.0564 250.594 33.7284L250.594 47.0004L245.386 47.0004Z" fill="rgb(255,255,255)" fill-rule="nonzero" />
		<path id="Vector" d="M226.773 47.4204C225.177 47.4204 223.791 47.0704 222.615 46.3704C221.439 45.6424 220.543 44.6204 219.927 43.3044C219.311 41.9604 219.003 40.3644 219.003 38.5164L219.003 24.8664L224.169 24.8664L224.169 37.4244C224.169 38.6004 224.351 39.6084 224.715 40.4484C225.079 41.2604 225.611 41.8904 226.311 42.3384C227.011 42.7864 227.851 43.0104 228.831 43.0104C229.559 43.0104 230.217 42.8984 230.805 42.6744C231.421 42.4224 231.953 42.0864 232.401 41.6664C232.849 41.2184 233.199 40.7004 233.451 40.1124C233.703 39.4964 233.829 38.8384 233.829 38.1384L233.829 24.8664L238.995 24.8664L238.995 47.0004L233.955 47.0004L233.871 42.3804L234.795 41.8764C234.459 42.9404 233.885 43.8924 233.073 44.7324C232.289 45.5444 231.351 46.2024 230.259 46.7064C229.167 47.1824 228.005 47.4204 226.773 47.4204Z" fill="rgb(255,255,255)" fill-rule="nonzero" />
		<path id="Vector" d="M200.989 47.0004L200.989 24.8664L206.071 24.8664L206.155 31.9224L205.441 30.3264C205.749 29.2064 206.281 28.1984 207.037 27.3024C207.793 26.4064 208.661 25.7064 209.641 25.2024C210.649 24.6704 211.699 24.4044 212.791 24.4044C213.267 24.4044 213.715 24.4464 214.135 24.5304C214.583 24.6144 214.947 24.7124 215.227 24.8244L213.841 30.4944C213.533 30.3264 213.155 30.1864 212.707 30.0744C212.259 29.9624 211.811 29.9064 211.363 29.9064C210.663 29.9064 209.991 30.0464 209.347 30.3264C208.731 30.5784 208.185 30.9424 207.709 31.4184C207.233 31.8944 206.855 32.4544 206.575 33.0984C206.323 33.7144 206.197 34.4144 206.197 35.1984L206.197 47.0004L200.989 47.0004Z" fill="rgb(255,255,255)" fill-rule="nonzero" />
		<path id="Vector" d="M186.639 47.0004L186.639 19.2384L191.805 19.2384L191.805 47.0004L186.639 47.0004ZM182.271 29.6544L182.271 24.8664L196.635 24.8664L196.635 29.6544L182.271 29.6544Z" fill="rgb(255,255,255)" fill-rule="nonzero" />
		<path id="Vector" d="M170.676 47.4204C168.604 47.4204 166.742 46.9164 165.09 45.9084C163.438 44.9004 162.136 43.5284 161.184 41.7924C160.232 40.0564 159.756 38.0964 159.756 35.9124C159.756 33.7284 160.232 31.7684 161.184 30.0324C162.136 28.2964 163.438 26.9244 165.09 25.9164C166.742 24.9084 168.604 24.4044 170.676 24.4044C172.664 24.4044 174.47 24.7824 176.094 25.5384C177.718 26.2944 178.978 27.3444 179.874 28.6884L177.018 32.1324C176.598 31.5444 176.066 31.0124 175.422 30.5364C174.778 30.0604 174.092 29.6824 173.364 29.4024C172.636 29.1224 171.908 28.9824 171.18 28.9824C169.948 28.9824 168.842 29.2904 167.862 29.9064C166.91 30.4944 166.154 31.3204 165.594 32.3844C165.034 33.4204 164.754 34.5964 164.754 35.9124C164.754 37.2284 165.034 38.4044 165.594 39.4404C166.182 40.4764 166.966 41.3024 167.946 41.9184C168.926 42.5344 170.018 42.8424 171.222 42.8424C171.95 42.8424 172.65 42.7304 173.322 42.5064C174.022 42.2544 174.68 41.9044 175.296 41.4564C175.912 41.0084 176.486 40.4484 177.018 39.7764L179.874 43.2624C178.922 44.4944 177.606 45.5024 175.926 46.2864C174.274 47.0424 172.524 47.4204 170.676 47.4204Z" fill="rgb(255,255,255)" fill-rule="nonzero" />
		<path id="Vector" d="M146.529 47.4204C144.205 47.4204 142.147 46.9304 140.355 45.9504C138.591 44.9704 137.205 43.6404 136.197 41.9604C135.217 40.2524 134.727 38.3064 134.727 36.1224C134.727 34.3864 135.007 32.8044 135.567 31.3764C136.127 29.9484 136.897 28.7164 137.877 27.6804C138.885 26.6164 140.075 25.8044 141.447 25.2444C142.847 24.6564 144.373 24.3624 146.025 24.3624C147.481 24.3624 148.839 24.6424 150.099 25.2024C151.359 25.7624 152.451 26.5324 153.375 27.5124C154.299 28.4644 154.999 29.6124 155.475 30.9564C155.979 32.2724 156.217 33.7144 156.189 35.2824L156.147 37.0884L138.213 37.0884L137.247 33.5604L151.821 33.5604L151.149 34.2744L151.149 33.3504C151.065 32.4824 150.785 31.7264 150.309 31.0824C149.833 30.4104 149.217 29.8924 148.461 29.5284C147.733 29.1364 146.921 28.9404 146.025 28.9404C144.653 28.9404 143.491 29.2064 142.539 29.7384C141.615 30.2704 140.915 31.0404 140.439 32.0484C139.963 33.0284 139.725 34.2604 139.725 35.7444C139.725 37.1724 140.019 38.4184 140.607 39.4824C141.223 40.5464 142.077 41.3724 143.169 41.9604C144.289 42.5204 145.591 42.8004 147.075 42.8004C148.111 42.8004 149.063 42.6324 149.931 42.2964C150.799 41.9604 151.737 41.3584 152.745 40.4904L155.307 44.0604C154.551 44.7604 153.683 45.3624 152.703 45.8664C151.751 46.3424 150.743 46.7204 149.679 47.0004C148.615 47.2804 147.565 47.4204 146.529 47.4204Z" fill="rgb(255,255,255)" fill-rule="nonzero" />
		<path id="Vector" d="M108.829 56.2404L108.829 24.8664L113.911 24.8664L113.995 29.9064L113.113 29.5284C113.281 28.6604 113.757 27.8484 114.541 27.0924C115.325 26.3084 116.277 25.6784 117.397 25.2024C118.545 24.7264 119.735 24.4884 120.967 24.4884C122.927 24.4884 124.663 24.9784 126.175 25.9584C127.715 26.9384 128.919 28.2824 129.787 29.9904C130.683 31.6984 131.131 33.6724 131.131 35.9124C131.131 38.1244 130.683 40.0984 129.787 41.8344C128.919 43.5424 127.715 44.9004 126.175 45.9084C124.663 46.8884 122.955 47.3784 121.051 47.3784C119.763 47.3784 118.517 47.1264 117.313 46.6224C116.137 46.1184 115.129 45.4604 114.289 44.6484C113.477 43.8364 112.973 42.9824 112.777 42.0864L114.037 41.4984L114.037 56.2404L108.829 56.2404ZM120.001 42.8004C121.177 42.8004 122.227 42.5064 123.151 41.9184C124.075 41.3304 124.789 40.5184 125.293 39.4824C125.825 38.4464 126.091 37.2564 126.091 35.9124C126.091 34.5684 125.839 33.3924 125.335 32.3844C124.831 31.3484 124.117 30.5364 123.193 29.9484C122.269 29.3604 121.205 29.0664 120.001 29.0664C118.769 29.0664 117.691 29.3604 116.767 29.9484C115.871 30.5084 115.157 31.3064 114.625 32.3424C114.093 33.3784 113.827 34.5684 113.827 35.9124C113.827 37.2564 114.093 38.4464 114.625 39.4824C115.157 40.5184 115.871 41.3304 116.767 41.9184C117.691 42.5064 118.769 42.8004 120.001 42.8004Z" fill="rgb(255,255,255)" fill-rule="nonzero" />
		<path id="Vector" d="M95.416 47.4204C93.456 47.4204 91.692 47.0984 90.124 46.4544C88.584 45.7824 87.324 44.8304 86.344 43.5984L89.704 40.7004C90.544 41.6524 91.482 42.3384 92.518 42.7584C93.554 43.1784 94.646 43.3884 95.794 43.3884C96.27 43.3884 96.69 43.3324 97.054 43.2204C97.446 43.1084 97.782 42.9404 98.062 42.7164C98.342 42.4924 98.552 42.2404 98.692 41.9604C98.86 41.6524 98.944 41.3164 98.944 40.9524C98.944 40.2804 98.692 39.7484 98.188 39.3564C97.908 39.1604 97.46 38.9504 96.844 38.7264C96.256 38.5024 95.486 38.2784 94.534 38.0544C93.022 37.6624 91.762 37.2144 90.754 36.7104C89.746 36.1784 88.962 35.5904 88.402 34.9464C87.926 34.4144 87.562 33.8124 87.31 33.1404C87.086 32.4684 86.974 31.7404 86.974 30.9564C86.974 29.9764 87.184 29.0944 87.604 28.3104C88.052 27.4984 88.654 26.7984 89.41 26.2104C90.166 25.6224 91.048 25.1744 92.056 24.8664C93.064 24.5584 94.114 24.4044 95.206 24.4044C96.326 24.4044 97.404 24.5444 98.44 24.8244C99.504 25.1044 100.484 25.5104 101.38 26.0424C102.304 26.5464 103.088 27.1624 103.732 27.8904L100.876 31.0404C100.344 30.5364 99.756 30.0884 99.112 29.6964C98.496 29.3044 97.866 28.9964 97.222 28.7724C96.578 28.5204 95.976 28.3944 95.416 28.3944C94.884 28.3944 94.408 28.4504 93.988 28.5624C93.568 28.6464 93.218 28.7864 92.938 28.9824C92.658 29.1784 92.434 29.4304 92.266 29.7384C92.126 30.0184 92.056 30.3544 92.056 30.7464C92.084 31.0824 92.168 31.4044 92.308 31.7124C92.476 31.9924 92.7 32.2304 92.98 32.4264C93.288 32.6224 93.75 32.8464 94.366 33.0984C94.982 33.3504 95.78 33.5884 96.76 33.8124C98.132 34.1764 99.28 34.5824 100.204 35.0304C101.128 35.4784 101.856 35.9964 102.388 36.5844C102.92 37.0884 103.298 37.6764 103.522 38.3484C103.746 39.0204 103.858 39.7624 103.858 40.5744C103.858 41.8904 103.48 43.0664 102.724 44.1024C101.996 45.1384 100.988 45.9504 99.7 46.5384C98.44 47.1264 97.012 47.4204 95.416 47.4204Z" fill="rgb(255,255,255)" fill-rule="nonzero" />
	</g>
	<path id="icon" d="M37.5 71.9498C38.1902 71.9499 38.7497 72.5097 38.75 73.1998C38.75 73.8902 38.1903 74.4498 37.5 74.4498C36.8096 74.4498 36.25 73.8902 36.25 73.1998C36.2503 72.5097 36.8098 71.9498 37.5 71.9498ZM30.4883 71.6256C30.7599 71.4356 31.0964 71.3618 31.4229 71.4196C32.1023 71.54 32.5557 72.1882 32.4355 72.8678C32.3153 73.5474 31.667 74.0005 30.9873 73.8805C30.3077 73.7604 29.854 73.1128 29.9736 72.4332C30.0312 72.1066 30.2166 71.8157 30.4883 71.6256ZM23.9287 70.5895C24.1636 69.9407 24.8794 69.6051 25.5283 69.8395C25.8405 69.9523 26.0956 70.1844 26.2363 70.485C26.3769 70.7855 26.3916 71.1302 26.2783 71.442C26.0425 72.0902 25.3262 72.4252 24.6777 72.1901C24.0291 71.9548 23.694 71.2383 23.9287 70.5895ZM49.4736 69.8385C50.1223 69.6036 50.8387 69.9391 51.0742 70.5875C51.3095 71.2362 50.9747 71.9534 50.3262 72.1891C50.0142 72.3024 49.6697 72.2868 49.3691 72.1461C49.0687 72.0054 48.8364 71.7511 48.7236 71.4391C48.4891 70.7901 48.8248 70.0734 49.4736 69.8385ZM54.4336 68.0289C54.6124 67.3623 55.2972 66.9666 55.9639 67.1451C56.6307 67.3239 57.0264 68.0096 56.8477 68.6764C56.6688 69.3432 55.9832 69.739 55.3164 69.5602C54.6498 69.3813 54.2548 68.6956 54.4336 68.0289ZM19.0645 67.1383C19.7312 66.9595 20.4169 67.3554 20.5957 68.0221C20.7745 68.6889 20.3787 69.3746 19.7119 69.5533C19.0451 69.732 18.3594 69.3363 18.1807 68.6696C18.002 68.0028 18.3977 67.3171 19.0645 67.1383ZM37.5 66.9498C38.1902 66.9499 38.7497 67.5097 38.75 68.1998C38.75 68.8902 38.1903 69.4498 37.5 69.4498C36.8096 69.4498 36.25 68.8902 36.25 68.1998C36.2503 67.5097 36.8098 66.9498 37.5 66.9498ZM30.8428 67.5084C30.9629 66.8288 31.6113 66.3749 32.291 66.4948C32.9708 66.6148 33.4246 67.2632 33.3047 67.943C33.2471 68.2693 33.0625 68.5595 32.791 68.7496C32.5194 68.9397 32.1829 69.0143 31.8564 68.9567C31.1768 68.8364 30.7229 68.188 30.8428 67.5084ZM43.1973 66.5055C43.6909 66.6151 44.0696 67.0114 44.1572 67.5094C44.2766 68.1889 43.823 68.8367 43.1436 68.9567C42.6457 69.0445 42.1437 68.8235 41.8721 68.3971C41.6005 67.9707 41.6123 67.4225 41.9023 67.0084C42.1924 66.5942 42.7036 66.3959 43.1973 66.5055ZM47.7617 65.1393C48.4102 64.9043 49.1265 65.2392 49.3623 65.8873C49.4757 66.1993 49.46 66.5438 49.3193 66.8444C49.1786 67.145 48.9244 67.3771 48.6123 67.4899C47.9633 67.7244 47.2476 67.3887 47.0127 66.7399C46.7779 66.0911 47.1131 65.3746 47.7617 65.1393ZM13.2412 63.9156C13.6849 63.3871 14.4732 63.318 15.002 63.7614C15.5307 64.2052 15.6 64.9943 15.1562 65.5231C14.9431 65.7769 14.6378 65.9356 14.3076 65.9645C13.9773 65.9933 13.6485 65.8896 13.3945 65.6764C12.8662 65.2325 12.7976 64.4443 13.2412 63.9156ZM51.9316 63.6969C52.1105 63.0302 52.7962 62.6344 53.4629 62.8131C54.1296 62.9919 54.5253 63.6776 54.3467 64.3444C54.1679 65.0112 53.4822 65.4069 52.8154 65.2281C52.1486 65.0494 51.7529 64.3637 51.9316 63.6969ZM21.5645 62.8073C22.2312 62.6285 22.9169 63.0243 23.0957 63.691C23.2742 64.3576 22.8784 65.0425 22.2119 65.2213C21.5452 65.4001 20.8596 65.0051 20.6807 64.3385C20.5019 63.6717 20.8976 62.986 21.5645 62.8073ZM57.6953 59.6432C58.1991 59.6872 58.6273 60.031 58.7793 60.5133C58.9311 60.9955 58.7771 61.5215 58.3896 61.8463C57.8611 62.2893 57.0736 62.221 56.6299 61.693C56.3046 61.3059 56.2444 60.7607 56.4775 60.3121C56.7108 59.8636 57.1917 59.5994 57.6953 59.6432ZM9.83984 59.0055C10.3435 59.0496 10.7709 59.3934 10.9229 59.8756C11.0747 60.3577 10.9214 60.8837 10.5342 61.2086C10.0056 61.6517 9.2172 61.5834 8.77344 61.0553C8.4482 60.6681 8.38878 60.1231 8.62207 59.6744C8.85541 59.2258 9.33609 58.9615 9.83984 59.0055ZM65.1602 59.0055C65.6639 58.9615 66.1446 59.2258 66.3779 59.6744C66.6112 60.1231 66.5518 60.6681 66.2266 61.0553C65.7828 61.5834 64.9944 61.6517 64.4658 61.2086C64.0786 60.8837 63.9253 60.3577 64.0771 59.8756C64.2291 59.3934 64.6565 59.0496 65.1602 59.0055ZM12.7588 56.0797C13.2877 55.6364 14.076 55.7053 14.5195 56.234C14.963 56.763 14.8942 57.5522 14.3652 57.9957C14.1112 58.2088 13.7824 58.3119 13.4521 58.2828C13.1219 58.2538 12.8165 58.0946 12.6035 57.8405C12.1602 57.3114 12.2299 56.5232 12.7588 56.0797ZM5.48145 53.9928C5.91925 53.7401 6.46613 53.7759 6.86719 54.0836C7.26828 54.3914 7.44432 54.9107 7.31348 55.399C7.18256 55.8872 6.77066 56.2491 6.26953 56.3151C5.76827 56.3811 5.27622 56.1377 5.02344 55.6998C4.67864 55.102 4.88376 54.3379 5.48145 53.9928ZM69.0566 53.8356C69.5579 53.9016 69.9707 54.2633 70.1016 54.7516C70.2324 55.2399 70.0554 55.7592 69.6543 56.067C69.2532 56.3746 68.7063 56.4106 68.2686 56.1578C67.6708 55.8126 67.4664 55.0476 67.8115 54.4498C68.0643 54.0124 68.5557 53.7698 69.0566 53.8356ZM40.4238 20.0045C45.6274 19.9907 50.8345 20.0218 56.0381 20.0045C54.1531 21.9514 52.2337 23.8674 50.3281 25.7936C49.5549 26.6392 48.3638 26.8738 47.2656 26.86C42.4726 26.8669 37.6797 26.8357 32.8867 26.8737C30.8203 26.9116 29.5916 28.7794 28.2334 30.067C27.1968 31.1992 25.927 32.1447 25.1299 33.484C31.0042 33.7843 36.9064 33.471 42.7842 33.6471C43.564 33.7955 44.2652 34.2126 44.8262 34.7682C46.2802 36.1801 47.67 37.6619 49.1172 39.0807C49.8801 39.8469 50.9068 40.4093 52.0049 40.4059C54.6699 40.4369 57.3349 40.4028 60 40.4166C58.2621 42.2116 56.4898 43.9753 54.7383 45.7633C53.9549 46.6228 52.8941 47.237 51.7139 47.2682C49.432 47.3269 47.15 47.2443 44.8682 47.2926C43.5374 47.2546 42.5687 48.304 41.6484 49.1256C40.1568 50.5029 38.7569 51.9874 37.1865 53.275C36.4647 53.8858 35.5174 54.0377 34.6006 53.9928C29.4003 53.9686 24.1964 54.0247 18.9961 53.9625C20.9086 52.0674 22.777 50.1272 24.6895 48.2321C25.312 47.6004 26.1565 47.2097 27.0527 47.2614C30.9289 47.2407 34.8089 47.2614 38.6885 47.2545C40.2211 47.2407 41.7848 47.3752 43.2764 46.9576C44.3848 46.5848 45.1447 45.6358 45.9658 44.8522C47.2693 43.4748 48.676 42.1906 49.9111 40.7477C49.203 40.3335 48.3713 40.4538 47.5879 40.4401C42.6819 40.4435 37.7722 40.4579 32.8662 40.4371C31.833 40.4682 30.8366 39.9879 30.125 39.2526C28.76 37.8684 27.4118 36.4671 26.0264 35.1002C25.2121 34.2994 24.1519 33.6437 22.9785 33.6471C20.3202 33.6298 17.6583 33.6709 15 33.6295C16.6525 31.9587 18.3187 30.2981 19.9541 28.61C20.717 27.8609 21.5488 27.0185 22.6641 26.8873C25.0451 26.7562 27.4402 26.9494 29.8213 26.7975C30.7927 26.7387 31.7607 26.4113 32.4824 25.735C34.2102 24.1436 35.839 22.4408 37.6387 20.9323C38.4187 20.2834 39.4284 19.9976 40.4238 20.0045ZM64.2539 51.36C64.9206 51.1812 65.6062 51.5762 65.7852 52.2428C65.9639 52.9096 65.5682 53.5953 64.9014 53.774C64.2346 53.9528 63.5489 53.5571 63.3701 52.8903C63.1917 52.2237 63.5874 51.5388 64.2539 51.36ZM3.01172 48.1725C3.66043 47.9379 4.37703 48.273 4.6123 48.9215C4.8476 49.5702 4.51186 50.2874 3.86328 50.5231C3.55154 50.6362 3.20763 50.6206 2.90723 50.4801C2.60664 50.3394 2.37356 50.0852 2.26074 49.7731C2.02621 49.1241 2.36287 48.4074 3.01172 48.1725ZM65.6895 47.2155C65.9248 46.5668 66.6412 46.2315 67.29 46.4664C67.9387 46.7013 68.2743 47.4172 68.04 48.066C67.9272 48.3781 67.6951 48.6333 67.3945 48.774C67.0939 48.9147 66.7494 48.9294 66.4375 48.816C65.789 48.5803 65.4542 47.8641 65.6895 47.2155ZM7.70996 46.4625C8.35874 46.2276 9.07517 46.563 9.31055 47.2115C9.54584 47.8603 9.21108 48.5774 8.5625 48.8131C8.25058 48.9264 7.90604 48.9108 7.60547 48.7701C7.30504 48.6295 7.07278 48.3751 6.95996 48.0631C6.72543 47.4141 7.06115 46.6975 7.70996 46.4625ZM71.9678 43.0289C72.0873 42.3491 72.7352 41.8949 73.415 42.0143C74.0949 42.1337 74.549 42.7816 74.4297 43.4615C74.3723 43.7881 74.1875 44.0788 73.916 44.2692C73.6446 44.4593 73.3088 44.5335 72.9824 44.4762C72.3026 44.3567 71.8483 43.7088 71.9678 43.0289ZM6.05273 41.3229C6.47913 41.0512 7.02724 41.0632 7.44141 41.3531C7.85545 41.6431 8.05465 42.1536 7.94531 42.6471C7.83575 43.1407 7.4394 43.5204 6.94141 43.608C6.26193 43.7275 5.61429 43.2737 5.49414 42.5944C5.40625 42.0966 5.62657 41.5947 6.05273 41.3229ZM67.5576 41.3522C67.8293 41.1619 68.1656 41.0875 68.4922 41.1451C69.1718 41.2652 69.6257 41.9137 69.5059 42.5934C69.386 43.2729 68.7382 43.7265 68.0586 43.6071C67.379 43.4876 66.925 42.8404 67.0439 42.1608C67.1013 41.834 67.2859 41.5426 67.5576 41.3522ZM1.25 35.6998C1.9402 35.6998 2.49975 36.2597 2.5 36.9498C2.5 37.6402 1.94036 38.1998 1.25 38.1998C0.559644 38.1998 0 37.6402 0 36.9498C0.00025145 36.2597 0.559799 35.6998 1.25 35.6998ZM6.25 35.6998C6.9402 35.6998 7.49975 36.2597 7.5 36.9498C7.5 37.6402 6.94036 38.1998 6.25 38.1998C5.55964 38.1998 5 37.6402 5 36.9498C5.00025 36.2597 5.5598 35.6998 6.25 35.6998ZM68.75 35.6998C69.4402 35.6998 69.9997 36.2597 70 36.9498C70 37.6402 69.4404 38.1998 68.75 38.1998C68.0596 38.1998 67.5 37.6402 67.5 36.9498C67.5003 36.2597 68.0598 35.6998 68.75 35.6998ZM73.75 35.6998C74.4402 35.6998 74.9997 36.2597 75 36.9498C75 37.6402 74.4404 38.1998 73.75 38.1998C73.0596 38.1998 72.5 37.6402 72.5 36.9498C72.5003 36.2597 73.0598 35.6998 73.75 35.6998ZM1.53027 29.4352C2.02383 29.3256 2.53511 29.5241 2.8252 29.9381C3.11526 30.3523 3.12719 30.9013 2.85547 31.3278C2.58375 31.754 2.08177 31.9742 1.58398 31.8864C0.904461 31.7664 0.450775 31.1187 0.570312 30.4391C0.657912 29.9411 1.03664 29.5448 1.53027 29.4352ZM73.4697 29.4352C73.9634 29.5448 74.3421 29.9411 74.4297 30.4391C74.5492 31.1187 74.0955 31.7664 73.416 31.8864C72.9182 31.9742 72.4162 31.754 72.1445 31.3278C71.8728 30.9013 71.8847 30.3523 72.1748 29.9381C72.4649 29.5241 72.9762 29.3257 73.4697 29.4352ZM66.4375 25.0875C66.7494 24.9742 67.0939 24.9898 67.3945 25.1305C67.695 25.2712 67.9272 25.5256 68.04 25.8375C68.2746 26.4865 67.9389 27.2032 67.29 27.4381C66.6413 27.673 65.9248 27.3376 65.6895 26.6891C65.4542 26.0404 65.7889 25.3232 66.4375 25.0875ZM7.60547 25.1266C7.90603 24.9859 8.25059 24.9703 8.5625 25.0836C9.21108 25.3193 9.54584 26.0365 9.31055 26.6852C9.0752 27.3338 8.35877 27.6691 7.70996 27.4342C7.06117 27.1993 6.72544 26.4826 6.95996 25.8336C7.07279 25.5217 7.30505 25.2672 7.60547 25.1266ZM2.25879 24.1237C2.49459 23.4753 3.21175 23.1404 3.86035 23.3756C4.50872 23.611 4.84399 24.3276 4.60938 24.9762C4.37446 25.625 3.65778 25.9607 3.00879 25.7262C2.69671 25.6134 2.44243 25.3813 2.30176 25.0807C2.16107 24.7801 2.14544 24.4356 2.25879 24.1237ZM71.1387 23.3766C71.7875 23.1417 72.504 23.4769 72.7393 24.1256C72.9745 24.7743 72.6397 25.4905 71.9912 25.7262C71.6793 25.8396 71.3348 25.8249 71.0342 25.6842C70.7336 25.5435 70.5015 25.2883 70.3887 24.9762C70.1544 24.3274 70.4901 23.6115 71.1387 23.3766ZM10.1172 20.1178C10.7839 19.9391 11.4696 20.334 11.6484 21.0006C11.8272 21.6673 11.4312 22.3529 10.7646 22.5319C10.0978 22.7106 9.41218 22.3149 9.2334 21.6481C9.0548 20.9814 9.45048 20.2966 10.1172 20.1178ZM63.3691 20.9996C63.5479 20.3329 64.2337 19.9372 64.9004 20.1158C65.5672 20.2946 65.963 20.9803 65.7842 21.6471C65.6054 22.3139 64.9197 22.7097 64.2529 22.5309C63.5863 22.352 63.1904 21.6663 63.3691 20.9996ZM68.7305 17.5856C69.2316 17.5196 69.7237 17.7621 69.9766 18.1998C70.3217 18.7977 70.1164 19.5626 69.5186 19.9078C69.0807 20.1606 68.5339 20.1247 68.1328 19.817C67.7317 19.5092 67.5557 18.9899 67.6865 18.5016C67.8175 18.0134 68.2293 17.6516 68.7305 17.5856ZM12.6035 16.0651C12.9284 15.6775 13.4552 15.5244 13.9375 15.6764C14.4197 15.8284 14.7626 16.2558 14.8066 16.7594C14.8506 17.2631 14.5872 17.7438 14.1387 17.9772C13.69 18.2105 13.145 18.1502 12.7578 17.8248C12.2298 17.3811 12.1604 16.5937 12.6035 16.0651ZM61.5479 15.6178C61.8781 15.6469 62.1835 15.806 62.3965 16.0602C62.8398 16.5892 62.7701 17.3775 62.2412 17.8209C61.7123 18.2642 60.924 18.1953 60.4805 17.6666C60.037 17.1376 60.1058 16.3484 60.6348 15.9049C60.8889 15.6919 61.2175 15.5887 61.5479 15.6178ZM8.77344 12.8453C9.2172 12.3173 10.0056 12.2489 10.5342 12.692C10.9214 13.0169 11.0747 13.5429 10.9229 14.025C10.7709 14.5073 10.3435 14.851 9.83984 14.8951C9.3361 14.9391 8.85542 14.6748 8.62207 14.2262C8.38879 13.7776 8.44822 13.2325 8.77344 12.8453ZM56.6299 12.2076C57.0737 11.679 57.8619 11.6107 58.3906 12.0543C58.9193 12.4981 58.9886 13.2863 58.5449 13.8151C58.1012 14.3437 57.313 14.4128 56.7842 13.9694C56.5303 13.7563 56.3707 13.4509 56.3418 13.1207C56.313 12.7904 56.4167 12.4616 56.6299 12.2076ZM16.6104 12.0543C17.1389 11.6112 17.9264 11.6796 18.3701 12.2076C18.6954 12.5947 18.7556 13.1399 18.5225 13.5885C18.2892 14.0371 17.8083 14.3013 17.3047 14.2574C16.8009 14.2134 16.3727 13.8697 16.2207 13.3873C16.0689 12.9051 16.2229 12.3791 16.6104 12.0543ZM20.6719 9.56311C20.8508 8.89647 21.5364 8.50056 22.2031 8.67932C22.8698 8.85808 23.2655 9.54387 23.0869 10.2106C22.9081 10.8774 22.2224 11.2731 21.5557 11.0944C20.8889 10.9156 20.4931 10.2299 20.6719 9.56311ZM13.3936 8.22327C13.9226 7.77985 14.7118 7.84953 15.1553 8.37854C15.5984 8.90754 15.5288 9.69587 15 10.1393C14.7459 10.3522 14.4172 10.4555 14.0869 10.4264C13.7568 10.3972 13.4521 10.238 13.2393 9.98401C12.796 9.455 12.8648 8.66673 13.3936 8.22327ZM60.6924 7.93616C61.0227 7.90732 61.3515 8.01104 61.6055 8.22424C62.1338 8.66815 62.2024 9.45639 61.7588 9.98499C61.3149 10.5137 60.5268 10.5821 59.998 10.1383C59.4693 9.69449 59.4 8.90634 59.8438 8.37756C60.0569 8.1237 60.3622 7.96502 60.6924 7.93616ZM47.6592 6.45081C47.9598 6.31012 48.3043 6.29448 48.6162 6.40784C49.2647 6.64348 49.5993 7.3598 49.3643 8.00842C49.129 8.65712 48.4125 8.9933 47.7637 8.75842C47.1148 8.52351 46.7792 7.80681 47.0137 7.15784C47.1264 6.84581 47.3587 6.59153 47.6592 6.45081ZM42.209 5.151C42.4806 4.96091 42.8171 4.88626 43.1436 4.94397C43.8232 5.0642 44.2772 5.71259 44.1572 6.39221C44.0371 7.07184 43.3886 7.5257 42.709 7.40588C42.0292 7.28586 41.5754 6.63742 41.6953 5.95764C41.7529 5.63128 41.9375 5.34109 42.209 5.151ZM31.8564 4.94397C32.3543 4.85616 32.8563 5.07716 33.1279 5.50354C33.3995 5.92995 33.3877 6.47811 33.0977 6.89221C32.8076 7.30639 32.2964 7.50471 31.8027 7.39514C31.3091 7.28557 30.9304 6.88924 30.8428 6.39124C30.7234 5.71173 31.177 5.06394 31.8564 4.94397ZM37.5 4.44983C38.1902 4.44986 38.7497 5.00971 38.75 5.69983C38.75 6.39016 38.1903 6.9498 37.5 6.94983C36.8096 6.94983 36.25 6.39019 36.25 5.69983C36.2503 5.00969 36.8098 4.44983 37.5 4.44983ZM54.8643 4.56506C55.2654 4.25733 55.8122 4.22145 56.25 4.47424C56.8478 4.81946 57.0522 5.58346 56.707 6.18127C56.4543 6.6191 55.9631 6.86148 55.4619 6.79553C54.9608 6.72956 54.549 6.3686 54.418 5.88049C54.2871 5.39214 54.4631 4.87283 54.8643 4.56506ZM25.1016 1.63635C25.7917 1.63648 26.3515 2.19617 26.3516 2.88635C26.3516 3.57663 25.7918 4.13622 25.1016 4.13635C24.4112 4.13635 23.8516 3.57671 23.8516 2.88635C23.8517 2.19609 24.4113 1.63635 25.1016 1.63635ZM49.8984 1.63635C50.5887 1.63635 51.1483 2.19609 51.1484 2.88635C51.1484 3.57671 50.5888 4.13635 49.8984 4.13635C49.2082 4.13619 48.6484 3.57661 48.6484 2.88635C48.6485 2.19619 49.2083 1.63652 49.8984 1.63635ZM30.9883 0.0201416C31.6678 -0.0993847 32.3165 0.354392 32.4365 1.03381C32.5244 1.53171 32.3033 2.03356 31.877 2.3053C31.4505 2.57702 30.9025 2.56509 30.4883 2.27502C30.0741 1.98495 29.8758 1.47372 29.9854 0.980103C30.0951 0.486841 30.4906 0.107838 30.9883 0.0201416ZM42.5645 1.03284C42.6847 0.353249 43.333 -0.0998632 44.0127 0.0201416C44.6922 0.140219 45.146 0.787825 45.0264 1.46741C44.9688 1.79399 44.7834 2.08489 44.5117 2.27502C44.24 2.46504 43.9036 2.53883 43.5771 2.48108C42.8977 2.36064 42.4443 1.71244 42.5645 1.03284Z" fill="rgb(66.3746,100.956,255)" fill-rule="nonzero" />
</svg>
